<?xml version="1.0" encoding="utf-8"?>
<!-- Svg Vector Icons : http://www.onlinewebfonts.com/icon -->
<!DOCTYPE svg PUBLIC "-//W3C//DTD SVG 1.1//EN" "http://www.w3.org/Graphics/SVG/1.1/DTD/svg11.dtd">
<svg version="1.1" xmlns="http://www.w3.org/2000/svg" xmlns:xlink="http://www.w3.org/1999/xlink" x="0px" y="0px" viewBox="0 0 1000 1000" enable-background="new 0 0 1000 1000" xml:space="preserve">
<metadata> Svg Vector Icons : http://www.onlinewebfonts.com/icon </metadata>
<g><g transform="translate(0.000000,421.000000) scale(0.100000,-0.100000)"><path d="M6599.5,3218.4c-30.7-3.8-126.5-19.2-210.9-36.4c-793.6-153.3-1441.5-772.5-1637-1558.4c-51.8-205.1-63.3-302.9-61.3-540.6c0-115-5.7-208.9-13.4-208.9c-7.7,0-101.6,13.4-210.9,28.8C3302.5,1067.7,2234.8,1612,1414.4,2457.4c-111.2,115-228.1,239.6-260.7,276c-109.3,130.3-193.6,161-302.9,113.1c-53.7-24.9-155.3-205.1-233.9-412.1c-159.1-423.6-164.8-987.2-11.5-1426.1c40.3-113.1,168.7-371.9,235.8-473.5c44.1-70.9,26.8-78.6-63.3-32.6c-76.7,40.3-197.4,24.9-253-30.7c-36.4-36.4-40.3-59.4-38.3-264.5c5.7-554,289.4-1138.6,730.3-1506.6c120.8-99.7,136.1-118.8,99.7-122.7c-67.1-11.5-126.5-57.5-151.4-118.9c-67.1-162.9,235.8-720.7,555.9-1021.7c224.3-208.9,529.1-394.9,776.3-473.5c42.2-13.4,84.3-30.7,93.9-38.3c24.9-23-425.5-235.8-665.1-314.4c-454.3-151.4-966.1-218.5-1408.9-185.9c-262.6,21.1-335.4,3.8-389.1-80.5c-40.3-67.1-38.3-141.9,11.5-216.6c28.8-44.1,320.1-220.4,578.9-350.8c569.3-283.7,1230.6-479.2,1903.4-561.6c270.3-32.6,1046.6-32.6,1313,1.9c1320.7,161,2426.7,688.1,3306.6,1571.8C8282.5-2164.1,8888.2-759.1,8941.9,724.5l11.5,318.2l97.8,74.8c247.3,187.9,716.9,713.1,826.2,923.9c26.8,55.6,28.8,76.7,11.5,138c-40.2,136.1-161,166.8-350.8,92c-55.6-23-134.2-51.7-176.3-67.1l-72.8-26.8l46,63.3c139.9,187.9,302.9,538.6,302.9,653.6c0,53.7-13.4,86.3-55.6,128.4c-86.3,84.3-155.3,74.8-412.1-57.5c-228.1-116.9-446.6-203.2-716.9-281.8l-159.1-46l-157.2,126.5c-187.8,149.5-550.1,333.5-770.6,389.1C7113.2,3218.4,6806.5,3245.2,6599.5,3218.4z M7161.1,2798.6c312.4-63.3,588.5-208.9,854.9-446.6c105.4-92,145.7-116.9,195.5-116.9c86.3,0,343.1,63.3,578.9,141.8c107.4,36.4,195.5,59.4,195.5,51.8c0-28.8-279.9-295.2-387.2-368c-136.1-93.9-187.8-159.1-187.8-239.6c0-76.7,74.8-172.5,147.6-185.9c46-7.7,362.3,36.4,523.3,74.8c36.4,7.7,13.4-23-95.8-124.6c-78.6-74.8-191.7-172.5-251.1-216.6c-178.3-136.1-180.2-139.9-184-446.6c-5.7-402.5-21.1-596.1-72.8-906.7c-159.1-933.5-561.6-1819.1-1177-2582c-143.8-178.3-532.9-567.4-711.1-711.2c-791.7-640.2-1723.2-1015.9-2769.8-1119.4c-293.3-28.8-893.3-24.9-1169.3,7.7c-477.3,57.5-975.7,184-1361,343.1l-191.7,80.5l115,15.3c757.2,101.6,1387.8,348.9,1945.6,761c161,120.8,208.9,201.3,172.5,293.3c-36.4,95.8-101.6,130.3-279.9,147.6c-216.6,21.1-320.1,44.1-508,116.9c-300.9,116.9-607.6,360.4-787.8,630.7l-95.8,143.8l139.9,13.4c184,19.2,446.6,69,502.2,93.9c53.7,24.9,109.3,111.2,109.3,170.6c0,78.6-88.2,189.8-153.3,191.7c-69,1.9-412.1,136.1-534.8,208.9c-270.3,159.1-532.9,435.1-665.2,693.9c-57.5,113.1-161,419.8-161,475.4c0,36.4,3.8,36.4,74.8,13.4c122.7-44.1,371.9-90.1,504.1-92c141.8-1.9,208.9,30.7,245.4,118.8c38.3,93.9-3.8,178.3-149.5,295.2c-333.5,266.4-532.9,569.3-640.2,966.1c-70.9,266.5-51.7,724.6,42.2,969.9l19.2,53.7l245.4-235.8C1905.1,1429.9,2652.7,983.3,3523,715c446.6-138,1031.3-243.4,1357.1-243.4c111.2,0,126.5,5.7,180.2,59.4l59.4,57.5l-17.2,157.2c-28.8,276-17.3,617.2,28.8,789.7c111.2,423.6,402.5,814.7,782.1,1052.4c120.8,74.8,381.4,176.4,532.9,208.9C6626.3,2836.9,6977.1,2836.9,7161.1,2798.6z"/></g></g>
</svg>